<?xml version="1.0" encoding="utf-8"?>
<!-- Generator: Adobe Illustrator 23.0.3, SVG Export Plug-In . SVG Version: 6.00 Build 0)  -->
<svg version="1.1" id="Layer_1" xmlns="http://www.w3.org/2000/svg" xmlns:xlink="http://www.w3.org/1999/xlink" x="0px" y="0px"
	 viewBox="0 0 500 500" style="enable-background:new 0 0 500 500;" xml:space="preserve">
<style type="text/css">
	.st0{fill:#A51C30;}
</style>
<g>
	<path class="st0" d="M464.2,330.3V177.9l-28.7,9.6v142.8c-17.9,6-30.8,22.9-30.8,42.8v76.9c0,7.9,6.4,14.4,14.4,14.4h61.5
		c7.9,0,14.4-6.4,14.4-14.4V373C495,353.2,482.1,336.3,464.2,330.3z"/>
	<path class="st0" d="M236.4,244.7L97.3,198.4v97.8c0,3.8,1.5,7.5,4.2,10.2c39.7,39.7,92.4,61.5,148.5,61.5
		c56.1,0,108.9-21.9,148.5-61.5c2.7-2.7,4.2-6.3,4.2-10.1v-97.8l-139.1,46.4C254.1,247.9,244.5,247.4,236.4,244.7L236.4,244.7z"/>
	<path class="st0" d="M250,218.2c1.5,0,3.1-0.2,4.5-0.7l230.6-76.9c5.9-2,9.8-7.4,9.8-13.6c0-6.2-4-11.7-9.8-13.6L254.5,36.5
		c-2.9-1-6.1-1-9.1,0L14.8,113.4C9,115.3,5,120.8,5,127s4,11.7,9.8,13.6l230.6,76.9C246.9,218,248.5,218.2,250,218.2L250,218.2z"/>
</g>
</svg>
